<?xml version="1.0" encoding="UTF-8"?>
<svg version="1.1" xmlns="http://www.w3.org/2000/svg" width="1024" height="1024">
<path d="M0 0 C337.92 0 675.84 0 1024 0 C1024 337.92 1024 675.84 1024 1024 C686.08 1024 348.16 1024 0 1024 C0 686.08 0 348.16 0 0 Z " fill="#FDFDFD" transform="translate(0,0)"/>
<path d="M0 0 C86.79 0 173.58 0 263 0 C261.47226006 3.05547989 260.31808289 5.01517321 258.19921875 7.546875 C257.64081299 8.21871826 257.08240723 8.89056152 256.50708008 9.58276367 C255.90661865 10.29795166 255.30615723 11.01313965 254.6875 11.75 C253.41361852 13.28218306 252.14019143 14.814744 250.8671875 16.34765625 C250.22104492 17.12383301 249.57490234 17.90000977 248.90917969 18.69970703 C246.02212221 22.17820519 243.16328104 25.67924386 240.3125 29.1875 C239.77584717 29.84782227 239.23919434 30.50814453 238.6862793 31.18847656 C234.79327446 35.99208076 230.96609032 40.84432025 227.15893555 45.71606445 C220.99810537 53.58286816 214.65222245 61.30061846 208.33398438 69.04101562 C202.68632615 75.96288111 197.05653798 82.89277434 191.5625 89.9375 C186.8813692 95.93987609 182.05454713 101.81343478 177.19824219 107.67456055 C173.50022634 112.14798318 169.87498901 116.66809303 166.3125 121.25 C162.28070103 126.43469233 158.10439366 131.47126459 153.83862305 136.46459961 C150.78220131 140.05023866 147.85551292 143.70517929 144.9921875 147.4453125 C142.29662257 150.90197811 139.52187805 154.29190936 136.75 157.6875 C132.56801525 162.81144869 128.4375058 167.96836971 124.375 173.1875 C120.41377134 178.27079036 116.31594343 183.21173379 112.12451172 188.10620117 C108.81159567 191.99284602 105.63337505 195.96763743 102.5 200 C98.42605858 205.24197422 94.21979362 210.34432765 89.90966797 215.39331055 C86.59827149 219.27671853 83.38449634 223.22331954 80.21484375 227.22265625 C77.95222268 230.05991124 75.66373939 232.87457838 73.37011719 235.68676758 C66.81857146 243.72030109 60.38494099 251.83321501 54 260 C50.37 264.62 46.74 269.24 43 274 C105.04 274.33 167.08 274.66 231 275 C227.61898259 285.14305224 227.61898259 285.14305224 225.93115234 290.0546875 C225.36574234 291.70053833 225.36574234 291.70053833 224.78890991 293.37963867 C223.09744778 298.29435762 221.40507689 303.2087619 219.7109375 308.12255859 C218.81515036 310.72130133 217.92103746 313.32061125 217.02832031 315.92041016 C215.73828986 319.67723383 214.4435529 323.43242607 213.1484375 327.1875 C212.74740814 328.35716309 212.34637878 329.52682617 211.93319702 330.73193359 C211.3772435 332.3399585 211.3772435 332.3399585 210.81005859 333.98046875 C210.48379486 334.92817139 210.15753113 335.87587402 209.82138062 336.85229492 C209 339 209 339 208 340 C206.39966287 340.09705965 204.79501859 340.12371614 203.19174099 340.12304783 C202.14473127 340.12503888 201.09772155 340.12702993 200.01898426 340.12908131 C198.85461261 340.12616847 197.69024096 340.12325563 196.49058533 340.12025452 C194.65170513 340.12153615 194.65170513 340.12153615 192.77567583 340.12284368 C189.35744192 340.12421192 185.93926456 340.12106425 182.52103746 340.11606562 C178.84072071 340.11176458 175.16040584 340.1132073 171.48008728 340.1139679 C165.09855163 340.11449335 158.71702617 340.1113443 152.33549309 340.10573006 C143.10876154 340.09761797 133.88203494 340.09500014 124.65530021 340.09374207 C109.68710815 340.09155109 94.71892153 340.08488976 79.75073242 340.07543945 C65.20678739 340.06626652 50.66284383 340.05918511 36.11889648 340.05493164 C35.22306053 340.05466892 34.32722458 340.05440619 33.40424209 340.05413551 C28.91029136 340.05283051 24.41634062 340.05156679 19.92238986 340.05032361 C-17.38507726 340.03994956 -54.69253821 340.02233 -92 340 C-90.67195545 337.27278682 -89.33064616 335.00159649 -87.3828125 332.671875 C-86.86452881 332.04531006 -86.34624512 331.41874512 -85.81225586 330.77319336 C-84.97706421 329.77171265 -84.97706421 329.77171265 -84.125 328.75 C-79.58787586 323.24374463 -75.18363537 317.67115747 -70.9375 311.9375 C-66.60364583 306.09195198 -62.14195517 300.37542265 -57.57006836 294.71459961 C-53.80099833 290.03493107 -50.13484316 285.28448055 -46.5 280.5 C-41.39935255 273.7902604 -36.18523111 267.18394645 -30.90234375 260.6171875 C-26.66988066 255.35383047 -22.51053158 250.0332065 -18.34570312 244.71630859 C-17.01892378 243.02413537 -15.68963877 241.33396623 -14.359375 239.64453125 C-8.54049929 232.25295757 -2.7590042 224.8331397 3.01000977 217.40258789 C6.66434046 212.70127808 10.35852354 208.03581611 14.09375 203.3984375 C16.3473956 200.56290799 18.5499723 197.68962444 20.75 194.8125 C24.93595765 189.33974195 29.2221108 183.95375858 33.5402832 178.58496094 C37.14031167 174.0997551 40.65369165 169.55814471 44.140625 164.984375 C47.51059805 160.58736254 50.99364999 156.28870818 54.5 152 C60.13893392 145.09994166 65.60269624 138.09057552 71 131 C79.1792562 120.3080763 87.4219994 109.66495873 95.875 99.1875 C100.06426763 93.9703502 104.11651078 88.650137 108.16943359 83.3269043 C112.08031576 78.19093378 116.03608298 73.09646473 120 68 C72.48 68 24.96 68 -24 68 C-20.62427395 56.74757984 -20.62427395 56.74757984 -19.16235352 52.6171875 C-18.83513809 51.68922363 -18.50792267 50.76125977 -18.17079163 49.80517578 C-17.82696945 48.83821777 -17.48314728 47.87125977 -17.12890625 46.875 C-16.76530502 45.84745605 -16.4017038 44.81991211 -16.02708435 43.76123047 C-15.26263487 41.60277522 -14.49699799 39.44474017 -13.73022461 37.28710938 C-12.56615509 34.01028896 -11.40683534 30.73181616 -10.24804688 27.453125 C-9.5002834 25.34364952 -8.75224564 23.23427124 -8.00390625 21.125 C-7.66210831 20.15804199 -7.32031036 19.19108398 -6.96815491 18.19482422 C-6.63778732 17.26686035 -6.30741974 16.33889648 -5.96704102 15.3828125 C-5.54093285 14.18229248 -5.54093285 14.18229248 -5.10621643 12.95751953 C-3.47982327 8.60928405 -1.72416123 4.31040306 0 0 Z " fill="#6746DA" transform="translate(416,338)"/>
<path d="M0 0 C42.41886235 -0.45941006 42.41886235 -0.45941006 56 3 C57.03060547 3.25740967 57.03060547 3.25740967 58.08203125 3.52001953 C72.8477792 7.3518544 85.64000707 13.65300007 97 24 C97.70640625 24.61359375 98.4128125 25.2271875 99.140625 25.859375 C116.70000209 42.03612397 124.13959767 67.4858978 125.11196136 90.66943359 C125.26795663 96.84696014 125.27821862 103.0245882 125.27439499 109.20379639 C125.27341525 112.70449898 125.2865394 116.20490649 125.30337524 119.70556641 C125.34922248 129.64678745 125.37424301 139.58797341 125.38085938 149.52929688 C125.38590541 155.64277977 125.41030047 161.75594792 125.44618607 167.86932373 C125.45590179 170.17826437 125.45836166 172.48724872 125.45301437 174.79620361 C125.39946828 199.03996891 129.32424506 221.82122045 146.625 240.1875 C160.6244832 253.49017635 176.4329384 257.28658768 195 261 C195 285.09 195 309.18 195 334 C190.38 334.66 185.76 335.32 181 336 C162.63032256 340.78041313 146.9405187 351.51298164 136.95385742 367.66845703 C126.80754038 385.00223944 125.56207326 402.77215878 125.58930969 422.34619713 C125.59385006 425.90259103 125.57961224 429.45850339 125.56091309 433.0148468 C125.5243905 440.57239039 125.51047412 448.12988125 125.5 455.6875 C125.48783804 464.44061909 125.46590142 473.1934995 125.41999817 481.94651222 C125.40662823 485.41363583 125.41056195 488.88044164 125.41540527 492.34757996 C125.34578236 521.33387331 121.2714229 549.52637726 100 571 C99.175 571.886875 98.35 572.77375 97.5 573.6875 C85.84043758 584.47259524 71.47814758 591.40809804 56 595 C55.36513672 595.14808105 54.73027344 595.29616211 54.07617188 595.44873047 C36.34577629 599.35193841 18.01821593 598.20169645 0 598 C0 577.87 0 557.74 0 537 C16.3125 536.6875 16.3125 536.6875 21.38793945 536.61206055 C32.66874714 536.37614308 42.26226057 535.08608715 52 529 C52.99 528.67 53.98 528.34 55 528 C56.10039837 526.19655271 56.10039837 526.19655271 57 524 C57.4021875 523.24203125 57.804375 522.4840625 58.21875 521.703125 C58.6415625 520.89359375 59.064375 520.0840625 59.5 519.25 C59.9228125 518.45078125 60.345625 517.6515625 60.78125 516.828125 C63.95496643 509.46347533 64.2946431 502.60605925 64.28710938 494.69726562 C64.29394241 493.59038391 64.30077545 492.4835022 64.30781555 491.34307861 C64.32136067 488.94889847 64.33044141 486.55468975 64.33552551 484.16047668 C64.34385574 480.35798248 64.36440267 476.55572373 64.38806152 472.7532959 C64.43619446 464.66889545 64.4692264 456.58448042 64.5 448.5 C64.53566788 439.1531373 64.57801241 429.80639974 64.63594055 420.4596405 C64.65581559 416.73760375 64.66429129 413.0156575 64.67224121 409.2935791 C64.73938323 394.35060339 64.94762692 379.47463294 69.125 365 C69.33672852 364.25854736 69.54845703 363.51709473 69.76660156 362.75317383 C78.08842252 335.23322794 97.48100407 314.12340121 122.3125 300.4375 C123.87090369 299.61717053 125.43177631 298.80139688 127 298 C125.88882813 297.3709375 124.77765625 296.741875 123.6328125 296.09375 C115.24529815 291.29292712 107.17639109 286.53747551 100 280 C99.4951709 279.54286621 98.9903418 279.08573242 98.47021484 278.61474609 C81.56025208 263.10934862 71.04424978 243.63436663 67 221 C66.83264343 220.07419128 66.66528687 219.14838257 66.49285889 218.19451904 C64.70657346 206.76565601 64.70437875 195.40189135 64.69503975 183.85369301 C64.69133275 180.16514924 64.67449184 176.47686409 64.65428162 172.78837585 C64.59926273 162.31233538 64.56816989 151.83625929 64.54370117 141.36010742 C64.5277714 134.92364809 64.49750774 128.48737718 64.45893669 122.05101585 C64.44734787 119.61317134 64.44135688 117.1752931 64.44125557 114.73742104 C64.44106212 111.32385304 64.4226969 107.91080159 64.40063477 104.49731445 C64.40521194 103.50738998 64.40978912 102.51746552 64.414505 101.49754333 C64.28453841 88.75905295 61.23625144 78.5332158 52.375 69.25 C41.71289523 61.38454061 30.40563077 61.23393755 17.75 61.1875 C8.96375 61.0946875 8.96375 61.0946875 0 61 C0 40.87 0 20.74 0 0 Z " fill="#375FD9" transform="translate(672,213)"/>
<path d="M0 0 C1.28686707 0.00151062 1.28686707 0.00151062 2.59973145 0.00305176 C5.77613682 0.00824724 8.95252301 0.02220826 12.12890625 0.03515625 C19.24453125 0.05578125 26.36015625 0.07640625 33.69140625 0.09765625 C33.69140625 19.89765625 33.69140625 39.69765625 33.69140625 60.09765625 C16.37890625 60.34765625 16.37890625 60.34765625 10.98706055 60.39550781 C-1.21426043 60.59853151 -11.21187633 62.03778946 -20.3671875 70.81640625 C-23.54108025 74.54588988 -25.49067394 78.57970365 -27.30859375 83.09765625 C-27.72109375 84.06703125 -28.13359375 85.03640625 -28.55859375 86.03515625 C-30.56407209 94.22419279 -30.45954504 102.84930418 -30.48217773 111.23779297 C-30.49220825 112.81821884 -30.49220825 112.81821884 -30.50244141 114.43057251 C-30.51639367 116.69866707 -30.52831809 118.96677487 -30.53838921 121.23488998 C-30.55495332 124.83511959 -30.578195 128.4352512 -30.60328674 132.03543091 C-30.67364664 142.26494371 -30.73409253 152.49449518 -30.78540039 162.72412109 C-30.81734534 169.00033633 -30.85865169 175.27643499 -30.90559578 181.55255508 C-30.92151334 183.93095924 -30.93388157 186.30939009 -30.94250298 188.68783188 C-31.03009162 212.50079784 -31.03009162 212.50079784 -33.30859375 223.09765625 C-33.52031723 224.11528046 -33.73204071 225.13290466 -33.95018005 226.18136597 C-38.03295028 244.91236585 -47.00659388 260.40005787 -60.30859375 274.09765625 C-60.85773438 274.70867187 -61.406875 275.3196875 -61.97265625 275.94921875 C-70.59128396 285.24714717 -82.13189304 291.40869729 -93.30859375 297.09765625 C-92.37660156 297.55914062 -91.44460937 298.020625 -90.484375 298.49609375 C-65.0524289 311.38335962 -45.35977067 331.65822192 -36.14550781 359.14135742 C-31.33136412 374.10682892 -31.00701755 388.58672565 -30.97306824 404.18713379 C-30.9646956 407.91359365 -30.94411528 411.6398181 -30.92053223 415.36621094 C-30.86851653 423.94671177 -30.83415415 432.52726131 -30.80077362 441.10784912 C-30.76747245 449.61253499 -30.72647578 458.11711985 -30.6726532 466.6217041 C-30.65274777 470.27353538 -30.64429968 473.92527454 -30.63635254 477.57714844 C-30.9577699 504.33404991 -30.9577699 504.33404991 -18.59765625 527.15234375 C-11.18724245 533.4499309 -3.54299107 535.21065417 5.921875 535.37890625 C6.71290115 535.39731567 7.50392731 535.4157251 8.31892395 535.43469238 C11.6974253 535.51326849 15.07611607 535.58137371 18.45483398 535.64990234 C20.92311921 535.70147775 23.39122541 535.75875622 25.859375 535.81640625 C27.01399483 535.83676941 27.01399483 535.83676941 28.19194031 535.85754395 C33.57852679 535.98477679 33.57852679 535.98477679 34.69140625 537.09765625 C34.78527006 538.96946565 34.80884429 540.84483685 34.80493164 542.71899414 C34.80485611 543.92016373 34.80478058 545.12133331 34.80470276 546.35890198 C34.79954147 547.66616745 34.79438019 548.97343292 34.7890625 550.3203125 C34.78719823 551.66409757 34.78577437 553.00788332 34.78477478 554.35166931 C34.78095027 557.89447902 34.77112057 561.43724795 34.7600708 564.9800415 C34.74985524 568.59280852 34.74527685 572.20558209 34.74023438 575.81835938 C34.72949823 582.91147505 34.71242261 590.00456299 34.69140625 597.09765625 C-1.44614561 597.67974964 -35.84019732 597.7001676 -64.30859375 572.09765625 C-75.51725916 560.95313199 -82.42171839 547.34306536 -86.80859375 532.28515625 C-87.0519043 531.45056885 -87.29521484 530.61598145 -87.54589844 529.75610352 C-91.06953613 516.63762612 -90.46570945 502.97432781 -90.50782394 489.50197601 C-90.51974889 486.01845407 -90.53923394 482.53504872 -90.5609436 479.05157471 C-90.62211102 469.15470319 -90.67650162 459.2578472 -90.70996094 449.36083984 C-90.7310449 443.28441259 -90.76644903 437.2082052 -90.81071854 431.1319046 C-90.82476111 428.83413549 -90.83357403 426.53632756 -90.83677292 424.23851776 C-90.87680291 398.24254907 -93.83972906 373.24036974 -112.6953125 353.61328125 C-120.51852221 346.29360623 -128.61381148 341.50831183 -138.62109375 337.84765625 C-139.28375244 337.60120361 -139.94641113 337.35475098 -140.62915039 337.10083008 C-147.26463033 334.80652585 -153.06202151 334.21251352 -160.30859375 333.09765625 C-160.30859375 308.67765625 -160.30859375 284.25765625 -160.30859375 259.09765625 C-155.68859375 258.43765625 -151.06859375 257.77765625 -146.30859375 257.09765625 C-129.10089226 252.81577713 -113.76697243 244.73990173 -103.8671875 229.71875 C-95.00908578 214.82204259 -90.97829197 197.38979161 -91.05322266 180.16040039 C-91.0496022 179.12778076 -91.04598175 178.09516113 -91.04225159 177.03125 C-91.03540417 174.80736735 -91.03284333 172.58346805 -91.03419876 170.35957527 C-91.03517345 166.82036875 -91.0221084 163.28145822 -91.00521851 159.74229431 C-90.95924804 149.68556014 -90.93438165 139.62885729 -90.92773438 129.57202148 C-90.92267329 123.39944805 -90.89819154 117.22718407 -90.86240768 111.05471611 C-90.85271417 108.72396148 -90.85021951 106.39316372 -90.85557938 104.0623951 C-90.91547948 76.72187662 -86.87413944 50.45361462 -68.30859375 29.09765625 C-67.61378906 28.29585937 -66.91898437 27.4940625 -66.203125 26.66796875 C-49.24281556 8.42924402 -24.52555473 -0.13724369 0 0 Z " fill="#4ABF74" transform="translate(317.30859375,213.90234375)"/>
<path d="M0 0 C0.78271035 -0.00170885 1.56542069 -0.0034177 2.37184954 -0.00517833 C4.97280814 -0.00845079 7.57350397 0.00249312 10.17443848 0.01345825 C12.04751581 0.01402285 13.92059358 0.01370485 15.79367065 0.01257324 C20.86332221 0.01200064 25.93287866 0.0237401 31.00250816 0.03772116 C36.30627329 0.05024382 41.61004073 0.05140023 46.91381836 0.05377197 C56.95045804 0.05998222 66.98705403 0.0763869 77.02367449 0.09647095 C88.45289883 0.1188441 99.88212528 0.12982695 111.31136608 0.13986182 C134.81587796 0.16075352 158.32035108 0.19592067 181.8248291 0.24050903 C180.15488874 5.26560861 178.47690131 10.28726951 176.75598145 15.29519653 C176.19057144 16.94104736 176.19057144 16.94104736 175.61373901 18.62014771 C173.92227689 23.53486665 172.22990599 28.44927093 170.5357666 33.36306763 C169.63997946 35.96181037 168.74586656 38.56112028 167.85314941 41.16091919 C166.56311896 44.91774286 165.268382 48.6729351 163.9732666 52.42800903 C163.57223724 53.59767212 163.17120789 54.76733521 162.75802612 55.97244263 C162.2020726 57.58046753 162.2020726 57.58046753 161.6348877 59.22097778 C161.30862396 60.16868042 160.98236023 61.11638306 160.64620972 62.09280396 C159.8248291 64.24050903 159.8248291 64.24050903 158.8248291 65.24050903 C157.22449197 65.33756869 155.61984769 65.36422517 154.01657009 65.36355686 C152.96956037 65.36554791 151.92255065 65.36753896 150.84381336 65.36959034 C149.67944171 65.3666775 148.51507007 65.36376466 147.31541443 65.36076355 C145.47653423 65.36204519 145.47653423 65.36204519 143.60050493 65.36335272 C140.18227103 65.36472095 136.76409366 65.36157329 133.34586656 65.35657465 C129.66554981 65.35227361 125.98523494 65.35371633 122.30491638 65.35447693 C115.92338073 65.35500239 109.54185527 65.35185333 103.16032219 65.34623909 C93.93359064 65.33812701 84.70686404 65.33550917 75.48012931 65.3342511 C60.51193725 65.33206012 45.54375063 65.32539879 30.57556152 65.31594849 C16.03161649 65.30677556 1.48767293 65.29969414 -13.05627441 65.29544067 C-13.95211036 65.29517795 -14.84794631 65.29491523 -15.77092881 65.29464454 C-20.26487954 65.29333955 -24.75883028 65.29207583 -29.25278103 65.29083264 C-66.56024816 65.28045859 -103.86770911 65.26283903 -141.1751709 65.24050903 C-139.77632197 62.36118173 -138.30259792 59.97519304 -136.2767334 57.49050903 C-135.71470215 56.79957153 -135.1526709 56.10863403 -134.5736084 55.39675903 C-133.98837402 54.68519653 -133.40313965 53.97363403 -132.8001709 53.24050903 C-132.2226709 52.52894653 -131.6451709 51.81738403 -131.0501709 51.08425903 C-128.23312827 47.6369192 -125.41563867 44.30538496 -122.1751709 41.24050903 C-122.78794702 44.20226026 -123.42889612 45.62109686 -125.1751709 48.24050903 C-118.74235714 44.95797042 -112.99033861 41.46231743 -107.3782959 36.92019653 C-103.1723785 33.71355738 -98.57451571 30.24050903 -93.1751709 30.24050903 C-92.8451709 29.58050903 -92.5151709 28.92050903 -92.1751709 28.24050903 C-87.44523595 25.88031927 -82.37371619 24.25024399 -77.3001709 22.80300903 C-73.54740051 21.7291214 -70.06131969 20.37216138 -66.4876709 18.80300903 C-62.27313035 17.0028284 -58.18558687 15.64947204 -53.7376709 14.55300903 C-44.44154477 12.21929404 -35.45686332 8.96267542 -26.42932129 5.76907349 C-25.22267822 5.34456909 -24.01603516 4.9200647 -22.77282715 4.48269653 C-21.69525146 4.09968384 -20.61767578 3.71667114 -19.50744629 3.322052 C-12.86068049 1.16473846 -6.99736161 -0.05693533 0 0 Z " fill="#1E77E9" transform="translate(465.1751708984375,612.7594909667969)"/>
<path d="M0 0 C86.79 0 173.58 0 263 0 C260.62380766 4.75238468 258.24460075 8.87769962 253.375 11.3125 C252.59125 11.539375 251.8075 11.76625 251 12 C249.515 12.495 249.515 12.495 248 13 C248 13.66 248 14.32 248 15 C246.46557617 16.16992188 246.46557617 16.16992188 244.29296875 17.46875 C243.48819092 17.95263184 242.68341309 18.43651367 241.85424805 18.93505859 C240.97422119 19.45148926 240.09419434 19.96791992 239.1875 20.5 C238.28620361 21.03318848 237.38490723 21.56637695 236.45629883 22.11572266 C223.33186332 29.81255352 210.18437042 36.88067265 195.93164062 42.25390625 C192.29901157 43.65700463 188.71739792 45.18511039 185.125 46.6875 C179.47648997 49.03399836 173.83472119 51.15233829 168 53 C167.154375 53.350625 166.30875 53.70125 165.4375 54.0625 C163 55 163 55 159.32739258 55.89819336 C155.24820073 56.90241494 151.28791288 58.17965588 147.32421875 59.56640625 C146.63237991 59.80536118 145.94054108 60.0443161 145.22773743 60.29051208 C143.04653868 61.0446538 140.8669976 61.80345776 138.6875 62.5625 C137.20779203 63.07518664 135.72797517 63.58755909 134.24804688 64.09960938 C131.54838617 65.03392713 128.84944191 65.97026201 126.15112305 66.90844727 C121.8438389 68.40049557 118.72793208 69.11797336 114.17243958 69.08229065 C112.9566774 69.07525116 111.74091522 69.06821167 110.48831177 69.06095886 C109.13909821 69.04797647 107.78988559 69.0348964 106.44067383 69.02172852 C105.02153322 69.01158546 103.60238933 69.00189181 102.1832428 68.99261475 C98.32812647 68.96613642 94.47308621 68.93335636 90.61802888 68.89946485 C86.59016206 68.86511919 82.56225447 68.83654132 78.53434753 68.80735779 C70.90581253 68.75120691 63.27732857 68.68985117 55.64884919 68.62663645 C46.96457338 68.55492529 38.28025668 68.48899977 29.59593165 68.42356598 C11.73056786 68.28882588 -6.13473146 68.14680145 -24 68 C-20.89408199 57.50987377 -20.89408199 57.50987377 -19.16235352 52.6171875 C-18.83513809 51.68922363 -18.50792267 50.76125977 -18.17079163 49.80517578 C-17.82696945 48.83821777 -17.48314728 47.87125977 -17.12890625 46.875 C-16.76530502 45.84745605 -16.4017038 44.81991211 -16.02708435 43.76123047 C-15.26263487 41.60277522 -14.49699799 39.44474017 -13.73022461 37.28710938 C-12.56615509 34.01028896 -11.40683534 30.73181616 -10.24804688 27.453125 C-9.5002834 25.34364952 -8.75224564 23.23427124 -8.00390625 21.125 C-7.66210831 20.15804199 -7.32031036 19.19108398 -6.96815491 18.19482422 C-6.63778732 17.26686035 -6.30741974 16.33889648 -5.96704102 15.3828125 C-5.6829689 14.58246582 -5.39889679 13.78211914 -5.10621643 12.95751953 C-3.47982327 8.60928405 -1.72416123 4.31040306 0 0 Z " fill="#833CDA" transform="translate(416,338)"/>
<path d="M0 0 C-1.28880086 3.69969203 -2.74340979 6.10898533 -5.4375 8.9375 C-8.96921292 12.78271642 -12.23682117 16.75586066 -15.4375 20.875 C-19.44415588 26.02504044 -23.50967915 31.11161498 -27.6875 36.125 C-29.42299366 38.28264077 -31.06745307 40.44612826 -32.6875 42.6875 C-33.38842773 43.63592773 -33.38842773 43.63592773 -34.10351562 44.60351562 C-35.00568772 45.82870319 -35.89119857 47.06641659 -36.75585938 48.31835938 C-40.45592879 53.28767159 -44.1765663 54.3819098 -50 56 C-52.23662522 56.76591609 -54.46803927 57.54714346 -56.6953125 58.33984375 C-79.49728505 66.32213701 -79.49728505 66.32213701 -90.90234375 69.13671875 C-97.06317883 70.85367279 -102.84397048 73.55697765 -108.6484375 76.2109375 C-111 77 -111 77 -114 76 C-110.57330964 74.09060822 -107.1458971 72.18251889 -103.71789551 70.27548218 C-102.48849016 69.59137759 -101.25924225 68.90698997 -100.03015137 68.22232056 C-93.65273027 64.67027161 -87.27130952 61.12998005 -80.8359375 57.68359375 C-70.15294977 51.9610559 -59.89613578 46.0023199 -50 39 C-49.04222656 38.32453125 -48.08445312 37.6490625 -47.09765625 36.953125 C-44.37412113 34.99936953 -41.68191006 33.01047335 -39 31 C-37.98550781 30.24203125 -36.97101563 29.4840625 -35.92578125 28.703125 C-24.72989694 20.25812241 -14.13827268 11.11587052 -3.890625 1.546875 C-2 0 -2 0 0 0 Z " fill="#2F3FC0" transform="translate(499,560)"/>
<path d="M0 0 C-1 3 -1 3 -3.20214844 4.40698242 C-4.64122559 5.12398315 -4.64122559 5.12398315 -6.109375 5.85546875 C-7.16777588 6.39131592 -8.22617676 6.92716309 -9.31665039 7.47924805 C-10.44965576 8.04297119 -11.58266113 8.60669434 -12.75 9.1875 C-21.78527544 13.78219156 -30.4794168 18.50748398 -39 24 C-40.24168483 24.76465717 -41.48529389 25.52619553 -42.73046875 26.28515625 C-57.78793353 35.48940609 -71.8764398 45.61637482 -85.390625 56.96875 C-86.32358398 57.75185547 -86.32358398 57.75185547 -87.27539062 58.55078125 C-88.80395498 59.83526001 -90.33172367 61.1206855 -91.859375 62.40625 C-94 64 -94 64 -96 64 C-95.731875 63.484375 -95.46375 62.96875 -95.1875 62.4375 C-93.91062565 59.92754261 -93.91062565 59.92754261 -92.875 56.875 C-91.06382183 52.62188509 -88.24513475 49.3489125 -85.3125 45.8125 C-83.22212728 43.27015479 -81.21200871 40.68930642 -79.22436523 38.06713867 C-77.94490362 36.38473525 -76.64814469 34.71696238 -75.34765625 33.05078125 C-73.97695288 31.26955109 -72.63526126 29.46382531 -71.37109375 27.60546875 C-66.58868795 21.07492505 -59.75583826 19.18353547 -52.36523438 16.78271484 C-49.83617891 15.94578753 -47.33274495 15.05187405 -44.828125 14.14453125 C-43.07308639 13.5125493 -41.31788041 12.88103196 -39.5625 12.25 C-38.74692627 11.95601318 -37.93135254 11.66202637 -37.09106445 11.35913086 C-33.17497517 9.98258305 -29.34774061 8.81155998 -25.27734375 7.984375 C-21.47656496 7.19850748 -18.44288686 5.82021477 -15 4 C-12.76596847 3.22328439 -10.51502198 2.49357228 -8.25 1.8125 C-7.12078125 1.46832031 -5.9915625 1.12414062 -4.828125 0.76953125 C-2 0 -2 0 0 0 Z " fill="#4B2BB7" transform="translate(603,384)"/>
<path d="M0 0 C12.21 0 24.42 0 37 0 C37 0.66 37 1.32 37 2 C25.78 2.33 14.56 2.66 3 3 C2.67 21.48 2.34 39.96 2 59 C11.24 59 20.48 59 30 59 C43.55421687 61.25903614 43.55421687 61.25903614 48 63.875 C48.86625 64.36742187 49.7325 64.85984375 50.625 65.3671875 C53.05219236 67.03588224 54.99191537 68.85246505 57 71 C56.67 71.66 56.34 72.32 56 73 C54.63875 71.6696875 54.63875 71.6696875 53.25 70.3125 C42.58253419 61.38086443 30.96097564 61.23597529 17.75 61.1875 C8.96375 61.0946875 8.96375 61.0946875 0 61 C0 40.87 0 20.74 0 0 Z " fill="#369BF9" transform="translate(672,213)"/>
<path d="M0 0 C12.54 0 25.08 0 38 0 C38 0.33 38 0.66 38 1 C30.57337629 2.83098314 23.62696941 3.22404685 16 3.0625 C13.9584022 3.02817675 11.91672887 2.99801105 9.875 2.97265625 C8.98554687 2.95468994 8.09609375 2.93672363 7.1796875 2.91821289 C4.95274137 2.8513953 4.95274137 2.8513953 3 4 C3.00222061 4.57105469 3.00444122 5.14210938 3.00672913 5.73046875 C3.02893796 11.7006772 3.04397144 17.67087381 3.05493164 23.64111328 C3.05994495 25.86605303 3.06675728 28.09098951 3.07543945 30.31591797 C3.08763687 33.52312021 3.09325847 36.7302787 3.09765625 39.9375 C3.10281754 40.92427734 3.10797882 41.91105469 3.11329651 42.92773438 C3.11337204 43.86810547 3.11344757 44.80847656 3.11352539 45.77734375 C3.115746 46.59452881 3.11796661 47.41171387 3.12025452 48.25366211 C2.96270476 51.851738 2.44671402 55.42628784 2 59 C14.54 59 27.08 59 40 59 C35.62244984 61.18877508 32.4743261 61.25939317 27.734375 61.1953125 C27.03070801 61.19329834 26.32704102 61.19128418 25.60205078 61.18920898 C22.98463379 61.17877991 20.36731005 61.15085732 17.75 61.125 C11.8925 61.08375 6.035 61.0425 0 61 C0 40.87 0 20.74 0 0 Z " fill="#5748C3" transform="translate(672,750)"/>
<path d="M0 0 C1 3 1 3 0.14453125 5.05859375 C-0.29503906 5.84363281 -0.73460937 6.62867188 -1.1875 7.4375 C-6.1226074 16.89759507 -8.49196347 26.60922319 -10.2890625 37.04296875 C-10.52367187 38.01878906 -10.75828125 38.99460937 -11 40 C-11.99 40.495 -11.99 40.495 -13 41 C-12.64622785 26.10940876 -7.61714003 12.62206202 0 0 Z " fill="#AED542" transform="translate(241,254)"/>
<path d="M0 0 C0.66 0.33 1.32 0.66 2 1 C0.6875 2.60416667 -0.625 4.20833333 -1.9375 5.8125 C-2.75992187 6.81796875 -3.58234375 7.8234375 -4.4296875 8.859375 C-6.05841792 10.85018188 -7.68882259 12.83957501 -9.3203125 14.828125 C-14.25836824 20.85014419 -19.14954669 26.90719625 -24 33 C-24.66 32.67 -25.32 32.34 -26 32 C-25.18917969 31.00742187 -24.37835938 30.01484375 -23.54296875 28.9921875 C-17.43212988 21.49813006 -11.36058 13.97998109 -5.4284668 6.34326172 C-3.69675494 4.12058535 -1.99472926 1.99472926 0 0 Z " fill="#4263E0" transform="translate(401,579)"/>
<path d="M0 0 C18.48 0 36.96 0 56 0 C55.34 1.32 54.68 2.64 54 4 C53.34 3.67 52.68 3.34 52 3 C52 2.34 52 1.68 52 1 C34.84 1 17.68 1 0 1 C0 0.67 0 0.34 0 0 Z " fill="#8A36DD" transform="translate(623,338)"/>
<path d="M0 0 C0.33 0.99 0.66 1.98 1 3 C-0.9375 6.1875 -0.9375 6.1875 -3 9 C-2.34 9.33 -1.68 9.66 -1 10 C-5.26041226 13.76354036 -9.51848911 17.49881962 -14 21 C-13.40706541 17.94794724 -12.51860637 16.06125287 -10.56640625 13.65234375 C-10.08236328 13.04712891 -9.59832031 12.44191406 -9.09960938 11.81835938 C-8.59236328 11.19767578 -8.08511719 10.57699219 -7.5625 9.9375 C-6.56293024 8.69731677 -5.56420099 7.45645553 -4.56640625 6.21484375 C-4.12240479 5.66948975 -3.67840332 5.12413574 -3.22094727 4.56225586 C-2.07463488 3.09549862 -1.03260818 1.54891227 0 0 Z " fill="#6634D2" transform="translate(510,439)"/>
<path d="M0 0 C0.66 0.33 1.32 0.66 2 1 C1.01 1.7734375 1.01 1.7734375 0 2.5625 C-6.23601785 7.6292645 -11.89238257 12.78184171 -17.140625 18.88671875 C-19.01394836 21.01585307 -20.97512655 23.01544483 -23 25 C-19.80357875 15.61051257 -8.85026399 4.425132 0 0 Z " fill="#AED73F" transform="translate(265,229)"/>
<path d="M0 0 C0.33 0.99 0.66 1.98 1 3 C-0.4375 5.1875 -0.4375 5.1875 -2 7 C-0.02 6.34 1.96 5.68 4 5 C-1.14285714 10.57142857 -1.14285714 10.57142857 -5 11 C-5 11.66 -5 12.32 -5 13 C-6.32 12.34 -7.64 11.68 -9 11 C-6.03 7.37 -3.06 3.74 0 0 Z " fill="#2778EF" transform="translate(342,654)"/>
<path d="M0 0 C-0.66386719 0.25394531 -1.32773437 0.50789062 -2.01171875 0.76953125 C-6.60212743 2.55878543 -10.80000929 4.40588809 -15 7 C-16.33076989 7.34342449 -17.66431979 7.67619874 -19 8 C-20.03125 8.53625 -21.0625 9.0725 -22.125 9.625 C-23.548125 10.305625 -23.548125 10.305625 -25 11 C-25.66 10.67 -26.32 10.34 -27 10 C-8.07268554 -2.69089518 -8.07268554 -2.69089518 0 0 Z " fill="#B0D848" transform="translate(294,218)"/>
<path d="M0 0 C0.33 0.66 0.66 1.32 1 2 C0.54109375 2.58007812 0.0821875 3.16015625 -0.390625 3.7578125 C-3.77983431 8.0726462 -6.97912546 12.41660415 -10 17 C-12.125 19.875 -12.125 19.875 -14 22 C-14.66 22 -15.32 22 -16 22 C-14.57195849 18.89875965 -12.84943109 16.35382139 -10.7421875 13.671875 C-10.11699219 12.87265625 -9.49179687 12.0734375 -8.84765625 11.25 C-8.19667969 10.425 -7.54570312 9.6 -6.875 8.75 C-6.21628906 7.90953125 -5.55757813 7.0690625 -4.87890625 6.203125 C-3.25570201 4.13295148 -1.62931524 2.06536494 0 0 Z " fill="#336BE5" transform="translate(359,632)"/>
<path d="M0 0 C0.33 0.99 0.66 1.98 1 3 C-0.7016231 5.30446688 -2.40273569 7.3811717 -4.3125 9.5 C-5.33064468 10.65517798 -6.34761432 11.8113929 -7.36328125 12.96875 C-7.82001221 13.47857422 -8.27674316 13.98839844 -8.74731445 14.51367188 C-10.20756046 16.18993808 -10.20756046 16.18993808 -12 19 C-12.66 18.67 -13.32 18.34 -14 18 C-12.41727985 15.93702698 -10.83384324 13.87461051 -9.25 11.8125 C-8.8065625 11.23435547 -8.363125 10.65621094 -7.90625 10.06054688 C-5.30669974 6.67730867 -2.67770532 3.32210637 0 0 Z " fill="#3066E5" transform="translate(374,613)"/>
<path d="M0 0 C1.37464034 4.12392101 0.03709102 5.89571782 -1.7421875 9.703125 C-3.48131008 12.87891406 -5.54789616 15.34355417 -8 18 C-8.33 17.34 -8.66 16.68 -9 16 C-8.2575 15.030625 -7.515 14.06125 -6.75 13.0625 C-3.81725271 8.98506218 -1.88231629 4.63743847 0 0 Z " fill="#4A3EC0" transform="translate(735,725)"/>
<path d="M0 0 C0.66 0.33 1.32 0.66 2 1 C0.59230365 2.79872312 -0.82651003 4.58874968 -2.25 6.375 C-3.03890625 7.37273438 -3.8278125 8.37046875 -4.640625 9.3984375 C-6.75596965 11.73092018 -8.10691236 12.89850333 -11 14 C-7.46386286 9.21224044 -3.85516296 4.53548584 0 0 Z " fill="#4856DF" transform="translate(401,579)"/>
<path d="M0 0 C1.125 1.5 1.125 1.5 2 4 C1.45336802 6.77871256 0.82806891 9.31127024 0 12 C-0.3765263 13.33290312 -0.7516456 14.66620494 -1.125 16 C-1.558125 17.485 -1.558125 17.485 -2 19 C-2.33 19 -2.66 19 -3 19 C-2.54240047 12.4491015 -1.7899856 6.3246158 0 0 Z " fill="#ADD754" transform="translate(231,276)"/>
<path d="M0 0 C0.33 0.99 0.66 1.98 1 3 C-0.9375 6.1875 -0.9375 6.1875 -3 9 C-2.34 9.33 -1.68 9.66 -1 10 C-3.475 11.485 -3.475 11.485 -6 13 C-6.35281338 8.8029908 -5.64185432 6.93477927 -3 3.6875 C-2.443125 2.99011719 -1.88625 2.29273438 -1.3125 1.57421875 C-0.6628125 0.79498047 -0.6628125 0.79498047 0 0 Z " fill="#5D36CA" transform="translate(510,439)"/>
<path d="M0 0 C-1.26941497 3.91402949 -2.51167694 5.79072873 -6 8 C-6.99 7.34 -7.98 6.68 -9 6 C-7.8803014 4.99406757 -6.7540588 3.9954151 -5.625 3 C-4.68527344 2.1646875 -4.68527344 2.1646875 -3.7265625 1.3125 C-2 0 -2 0 0 0 Z " fill="#4043CC" transform="translate(499,560)"/>
<path d="M0 0 C0.66 0.66 1.32 1.32 2 2 C-0.31 4.97 -2.62 7.94 -5 11 C-5.66 10.34 -6.32 9.68 -7 9 C-4.69 6.03 -2.38 3.06 0 0 Z " fill="#804BE0" transform="translate(492,462)"/>
<path d="M0 0 C4.62 0 9.24 0 14 0 C13.34 1.32 12.68 2.64 12 4 C11.34 3.67 10.68 3.34 10 3 C10 2.34 10 1.68 10 1 C6.7 1 3.4 1 0 1 C0 0.67 0 0.34 0 0 Z " fill="#9441E1" transform="translate(665,338)"/>
<path d="M0 0 C1.14926266 0.95421808 2.29430541 1.91352045 3.4375 2.875 C4.07558594 3.40867187 4.71367187 3.94234375 5.37109375 4.4921875 C7 6 7 6 8 8 C6.68 8 5.36 8 4 8 C0 2.88888889 0 2.88888889 0 0 Z " fill="#20B3A3" transform="translate(293,736)"/>
<path d="M0 0 C0.33 0.99 0.66 1.98 1 3 C-1.3125 6.1875 -1.3125 6.1875 -4 9 C-4.66 9 -5.32 9 -6 9 C-4.47291037 5.56404834 -2.40072955 2.88087546 0 0 Z " fill="#316FE9" transform="translate(342,654)"/>
<path d="M0 0 C0.66 0.33 1.32 0.66 2 1 C-2.625 5.875 -2.625 5.875 -6 7 C-4.77065985 3.31197956 -3.06140622 2.27643027 0 0 Z " fill="#503ABE" transform="translate(770,783)"/>
</svg>
